<svg width="36" height="21" viewBox="0 0 36 21" fill="none" xmlns="http://www.w3.org/2000/svg">
<path d="M7.41826 0C5.91527 0 4.52702 0.7014 3.69114 1.87005L0.562519 6.2349C0.19432 6.74957 -0.00148679 7.35485 1.9325e-05 7.9737V14.9299C-0.00205498 15.3961 0.162914 15.8494 0.468688 16.218C0.774463 16.5865 1.20348 16.849 1.68752 16.9638L4.60577 17.6536C4.81565 18.5973 5.36688 19.4449 6.16699 20.0542C6.96709 20.6635 7.96738 20.9975 9.00001 21C11.0835 21 12.8228 19.6549 13.3245 17.85H23.8005C24.3023 19.6549 26.0415 21 28.125 21C30.2085 21 31.9478 19.6549 32.4495 17.85H33.75C34.9808 17.85 36 16.8987 36 15.75V11.9112C35.9989 10.9753 35.6628 10.0665 35.045 9.32936C34.4272 8.59217 33.5631 8.06882 32.5901 7.84245L26.5073 6.3987L22.113 1.5099C21.6926 1.0378 21.1661 0.6578 20.5708 0.396861C19.9755 0.135922 19.326 0.000431866 18.6683 0H7.41826ZM7.41826 2.1H12.375V6.3H3.23439L5.55527 3.0513V3.01875C5.75909 2.73302 6.03615 2.49932 6.3613 2.33888C6.68644 2.17843 7.0505 2.09632 7.41826 2.1ZM14.625 2.1H18.6683C19.3354 2.1 19.9643 2.3751 20.3906 2.85495L23.4844 6.3H14.625V2.1ZM9.00001 14.7C10.2566 14.7 11.25 15.6271 11.25 16.8C11.25 17.9728 10.2566 18.9 9.00001 18.9C7.74339 18.9 6.75002 17.9728 6.75002 16.8C6.75002 15.6271 7.74339 14.7 9.00001 14.7ZM28.125 14.7C29.3816 14.7 30.375 15.6271 30.375 16.8C30.375 17.9728 29.3816 18.9 28.125 18.9C26.8684 18.9 25.875 17.9728 25.875 16.8C25.875 15.6271 26.8684 14.7 28.125 14.7Z" fill="black"/>
</svg>
