<svg width="40" height="24" viewBox="0 0 40 24" fill="none" xmlns="http://www.w3.org/2000/svg">
<path fill-rule="evenodd" clip-rule="evenodd" d="M4 0C1.79086 0 0 1.79086 0 4V20C0 22.2091 1.79086 24 4 24H36C38.2091 24 40 22.2091 40 20V4C40 1.79086 38.2091 0 36 0H4ZM11 11C12.6569 11 14 9.65685 14 8C14 6.34315 12.6569 5 11 5C9.34316 5 8.00001 6.34315 8.00001 8C8.00001 9.65685 9.34316 11 11 11ZM10.9242 19C12.8564 19 14.6275 18.3102 16.0046 17.1633C15.8997 14.2927 13.7009 12 11.0039 12C8.26731 12 6.04373 14.3604 6 17.2901C7.35364 18.3608 9.06428 19 10.9242 19ZM21 7H20V8V9H21H34H35V8V7H34H21ZM20 11H21H34H35V12V13H34H21H20V12V11ZM21 15H20V16V17H21H29H30V16V15H29H21Z" fill="black"/>
</svg>
