<svg width="27" height="27" viewBox="0 0 27 27" fill="none" xmlns="http://www.w3.org/2000/svg">
<path d="M27 12.5607H25.6514C25.4243 9.66319 24.1705 6.94186 22.1157 4.88644C20.0609 2.83103 17.3399 1.57649 14.4424 1.34859V0H12.5607V1.34859C9.66291 1.5764 6.94155 2.83082 4.88618 4.88618C2.83082 6.94155 1.5764 9.66291 1.34859 12.5607H0V14.4424H1.34859C1.57649 17.3399 2.83103 20.0609 4.88644 22.1157C6.94186 24.1705 9.66319 25.4243 12.5607 25.6514V27H14.4424V25.6514C17.3394 25.4236 20.06 24.1695 22.1147 22.1147C24.1695 20.06 25.4236 17.3394 25.6514 14.4424H27V12.5607ZM23.7634 12.5607H21.1321C20.9195 10.8603 20.1464 9.27914 18.935 8.06712C17.7235 6.85509 16.1428 6.08128 14.4424 5.86793V3.23661C16.8397 3.4597 19.0835 4.5138 20.7856 6.21651C22.4878 7.91921 23.5411 10.1634 23.7634 12.5607ZM13.5016 14.8094C13.242 14.81 12.9881 14.7336 12.7721 14.5898C12.556 14.4459 12.3875 14.2412 12.2879 14.0016C12.1883 13.7619 12.162 13.498 12.2125 13.2434C12.263 12.9889 12.3879 12.755 12.5715 12.5715C12.755 12.3879 12.9889 12.263 13.2434 12.2125C13.498 12.162 13.7619 12.1883 14.0016 12.2879C14.2412 12.3875 14.4459 12.556 14.5898 12.7721C14.7336 12.9881 14.81 13.242 14.8094 13.5016C14.8086 13.8482 14.6705 14.1803 14.4254 14.4254C14.1803 14.6705 13.8482 14.8086 13.5016 14.8094ZM12.5607 10.45C12.0639 10.604 11.6121 10.8766 11.2444 11.2444C10.8766 11.6121 10.604 12.0639 10.45 12.5607H7.77477C7.97318 11.3632 8.54135 10.2579 9.39962 9.39962C10.2579 8.54135 11.3632 7.97318 12.5607 7.77477V10.45ZM10.45 14.4424C10.6044 14.9386 10.8772 15.3898 11.245 15.757C11.6127 16.1242 12.0643 16.3963 12.5607 16.55V19.2252C11.3635 19.0275 10.2582 18.4599 9.39992 17.6021C8.54162 16.7444 7.97333 15.6395 7.77477 14.4424H10.45ZM14.4424 16.55C14.9382 16.3957 15.389 16.1232 15.7561 15.7561C16.1232 15.389 16.3957 14.9382 16.55 14.4424H19.2252C19.0273 15.6393 18.4596 16.7441 17.6018 17.6018C16.7441 18.4596 15.6393 19.0273 14.4424 19.2252V16.55ZM16.55 12.5607C16.3963 12.0643 16.1242 11.6127 15.757 11.245C15.3898 10.8772 14.9386 10.6044 14.4424 10.45V7.77477C15.6395 7.97333 16.7444 8.54162 17.6021 9.39992C18.4599 10.2582 19.0275 11.3635 19.2252 12.5607H16.55ZM12.5607 3.23661V5.86793C10.8598 6.08063 9.27832 6.85416 8.06624 8.06624C6.85416 9.27832 6.08063 10.8598 5.86793 12.5607H3.23661C3.45901 10.1629 4.5128 7.91834 6.21557 6.21557C7.91834 4.5128 10.1629 3.45901 12.5607 3.23661ZM3.23661 14.4424H5.86793C6.08128 16.1428 6.85509 17.7235 8.06712 18.935C9.27914 20.1464 10.8603 20.9195 12.5607 21.1321V23.7634C10.1634 23.5411 7.91921 22.4878 6.21651 20.7856C4.5138 19.0835 3.4597 16.8397 3.23661 14.4424ZM14.4424 23.7634V21.1321C16.1423 20.9189 17.7227 20.1455 18.9341 18.9341C20.1455 17.7227 20.9189 16.1423 21.1321 14.4424H23.7634C23.5404 16.8392 22.4868 19.0826 20.7847 20.7847C19.0826 22.4868 16.8392 23.5404 14.4424 23.7634Z" fill="#BC702A"/>
</svg>
