<svg width="158" height="27" viewBox="0 0 158 27" fill="none" xmlns="http://www.w3.org/2000/svg">
<g clip-path="url(#clip0)">
<path d="M27 12.5607H25.6514C25.4243 9.66319 24.1705 6.94186 22.1157 4.88644C20.0609 2.83103 17.3399 1.57649 14.4424 1.34859V0H12.5607V1.34859C9.66291 1.5764 6.94155 2.83082 4.88618 4.88618C2.83082 6.94155 1.5764 9.66291 1.34859 12.5607H0V14.4424H1.34859C1.57649 17.3399 2.83103 20.0609 4.88644 22.1157C6.94186 24.1705 9.66319 25.4243 12.5607 25.6514V27H14.4424V25.6514C17.3394 25.4236 20.06 24.1695 22.1147 22.1147C24.1695 20.06 25.4236 17.3394 25.6514 14.4424H27V12.5607ZM23.7634 12.5607H21.1321C20.9195 10.8603 20.1464 9.27914 18.935 8.06712C17.7235 6.85509 16.1428 6.08128 14.4424 5.86793V3.23661C16.8397 3.4597 19.0835 4.5138 20.7856 6.21651C22.4878 7.91921 23.5411 10.1634 23.7634 12.5607ZM13.5016 14.8094C13.242 14.81 12.9881 14.7336 12.7721 14.5898C12.556 14.4459 12.3875 14.2412 12.2879 14.0016C12.1883 13.7619 12.162 13.498 12.2125 13.2434C12.263 12.9889 12.3879 12.755 12.5715 12.5715C12.755 12.3879 12.9889 12.263 13.2434 12.2125C13.498 12.162 13.7619 12.1883 14.0016 12.2879C14.2412 12.3875 14.4459 12.556 14.5898 12.7721C14.7336 12.9881 14.81 13.242 14.8094 13.5016C14.8086 13.8482 14.6705 14.1803 14.4254 14.4254C14.1803 14.6705 13.8482 14.8086 13.5016 14.8094ZM12.5607 10.45C12.0639 10.604 11.6121 10.8766 11.2444 11.2444C10.8766 11.6121 10.604 12.0639 10.45 12.5607H7.77477C7.97318 11.3632 8.54135 10.2579 9.39962 9.39962C10.2579 8.54135 11.3632 7.97318 12.5607 7.77477V10.45ZM10.45 14.4424C10.6044 14.9386 10.8772 15.3898 11.245 15.757C11.6127 16.1242 12.0643 16.3963 12.5607 16.55V19.2252C11.3635 19.0275 10.2582 18.4599 9.39992 17.6021C8.54162 16.7444 7.97333 15.6395 7.77477 14.4424H10.45ZM14.4424 16.55C14.9382 16.3957 15.389 16.1232 15.7561 15.7561C16.1232 15.389 16.3957 14.9382 16.55 14.4424H19.2252C19.0273 15.6393 18.4596 16.7441 17.6018 17.6018C16.7441 18.4596 15.6393 19.0273 14.4424 19.2252V16.55ZM16.55 12.5607C16.3963 12.0643 16.1242 11.6127 15.757 11.245C15.3898 10.8772 14.9386 10.6044 14.4424 10.45V7.77477C15.6395 7.97333 16.7444 8.54162 17.6021 9.39992C18.4599 10.2582 19.0275 11.3635 19.2252 12.5607H16.55ZM12.5607 3.23661V5.86793C10.8598 6.08063 9.27832 6.85416 8.06624 8.06624C6.85416 9.27832 6.08063 10.8598 5.86793 12.5607H3.23661C3.45901 10.1629 4.5128 7.91834 6.21557 6.21557C7.91834 4.5128 10.1629 3.45901 12.5607 3.23661ZM3.23661 14.4424H5.86793C6.08128 16.1428 6.85509 17.7235 8.06712 18.935C9.27914 20.1464 10.8603 20.9195 12.5607 21.1321V23.7634C10.1634 23.5411 7.91921 22.4878 6.21651 20.7856C4.5138 19.0835 3.4597 16.8397 3.23661 14.4424ZM14.4424 23.7634V21.1321C16.1423 20.9189 17.7227 20.1455 18.9341 18.9341C20.1455 17.7227 20.9189 16.1423 21.1321 14.4424H23.7634C23.5404 16.8392 22.4868 19.0826 20.7847 20.7847C19.0826 22.4868 16.8392 23.5404 14.4424 23.7634Z" fill="#BC702A"/>
<path d="M38.2341 14.5805C39.1592 14.5663 40.0741 14.3846 40.9344 14.0442C41.726 13.7067 42.3957 13.1355 42.8538 12.407C43.3097 11.6509 43.5413 10.7808 43.5218 9.89803C43.5522 8.85342 43.206 7.83271 42.5465 7.02209C41.9043 6.24748 41.0208 5.71076 40.0375 5.49787C39.3663 5.34419 38.1557 5.26892 36.3053 5.26892H32.7614V22.1263H35.01V14.5993H35.4397L41.2731 22.1263H44.0707L38.2341 14.5805ZM35.0006 12.3851V7.49566H37.5473C38.3126 7.4553 39.0791 7.54437 39.8148 7.75911C40.2335 7.92388 40.5892 8.21702 40.8309 8.59649C41.0892 8.98336 41.2247 9.43916 41.2198 9.9043C41.2273 10.3821 41.0931 10.8514 40.8341 11.2529C40.5804 11.648 40.2066 11.9514 39.7677 12.1185C39.0276 12.3437 38.2542 12.4403 37.4814 12.4039L35.0006 12.3851Z" fill="#BC702A"/>
<path d="M55.3266 17.4187L55.173 17.6728C54.8374 18.2734 54.4147 18.8208 53.9185 19.2973C53.5109 19.6416 53.0445 19.9094 52.5416 20.0877C52.0061 20.2898 51.4392 20.3959 50.8669 20.4013C50.3118 20.4135 49.7605 20.308 49.2491 20.0917C48.7377 19.8755 48.278 19.5535 47.9 19.1468C47.1557 18.3607 46.7183 17.3334 46.6674 16.252H57.4561V15.9384C57.4927 14.3907 57.0016 12.8766 56.0637 11.6449C55.4624 10.8577 54.6822 10.2252 53.7877 9.79977C52.8933 9.37434 51.9102 9.16826 50.9202 9.19861C49.9534 9.16726 48.9932 9.3682 48.1201 9.78456C47.2469 10.2009 46.4864 10.8206 45.9022 11.5916C44.9398 12.8014 44.4217 14.3048 44.4344 15.8506C44.432 17.5307 45.0483 19.1529 46.1656 20.4076C47.3261 21.7562 48.9506 22.4399 50.9955 22.4399C51.8423 22.4511 52.6841 22.3076 53.4794 22.0165C54.2144 21.7341 54.8891 21.3148 55.4678 20.7808C56.103 20.171 56.6263 19.4545 57.0139 18.6638L57.1551 18.3878L55.3266 17.4187ZM46.9278 14.2825C47.1514 13.5485 47.5583 12.8836 48.1101 12.3505C48.8804 11.649 49.8911 11.2705 50.9327 11.2936C51.5929 11.2919 52.2452 11.4365 52.8427 11.717C53.4045 11.9668 53.9005 12.3436 54.2917 12.8178C54.6238 13.2566 54.8716 13.7532 55.0224 14.2825H46.9278Z" fill="#BC702A"/>
<path d="M69.6436 9.50287V11.14C69.1739 10.623 68.6191 10.1902 68.0034 9.8604C67.1311 9.41106 66.1619 9.18275 65.1807 9.19551C64.3221 9.1847 63.4704 9.35095 62.6788 9.68388C61.8872 10.0168 61.1727 10.5093 60.5799 11.1306C59.9643 11.737 59.4778 12.4616 59.1496 13.2609C58.8214 14.0602 58.6582 14.9177 58.6699 15.7816C58.6543 16.6516 58.8127 17.5159 59.1358 18.3238C59.459 19.1317 59.9404 19.8668 60.5516 20.486C61.1382 21.1081 61.8474 21.6018 62.6345 21.936C63.4215 22.2701 64.2693 22.4374 65.1243 22.4274C66.0874 22.4346 67.0393 22.22 67.9061 21.8001C68.5444 21.4767 69.1268 21.0532 69.6311 20.5456V22.1137H71.7794V9.50287H69.6436ZM69.1701 18.1903C68.7898 18.868 68.2269 19.4255 67.5455 19.7992C66.8598 20.1872 66.0846 20.3894 65.2968 20.3857C64.5244 20.3876 63.7658 20.1806 63.1014 19.7866C62.4179 19.38 61.855 18.7987 61.4705 18.1025C61.0741 17.412 60.8654 16.6296 60.8654 15.8334C60.8654 15.0372 61.0741 14.2548 61.4705 13.5643C61.8481 12.8772 62.4046 12.3051 63.081 11.9086C63.7574 11.5122 64.5285 11.3062 65.3125 11.3125C65.8972 11.2999 66.4781 11.4095 67.0182 11.6341C67.5582 11.8588 68.0454 12.1936 68.4487 12.6172C68.8724 13.0447 69.2044 13.5542 69.4244 14.1145C69.6445 14.6748 69.7479 15.2741 69.7283 15.8757C69.7471 16.6827 69.5546 17.4806 69.1701 18.1903Z" fill="#BC702A"/>
<path d="M74.1943 4.87378V22.1232H76.3646V4.87378H74.1943Z" fill="#BC702A"/>
<path d="M88.9222 5.28143V12.084H81.2917V5.28143H79.0336V22.1262H81.2823V14.2856H88.9128V22.1262H91.1615V5.28143H88.9222Z" fill="#267317"/>
<path d="M102.737 9.50287V15.4178C102.737 17.2369 102.618 17.9676 102.521 18.2624C102.325 18.8729 101.93 19.3998 101.398 19.7584C100.801 20.15 100.098 20.3482 99.3847 20.3261C98.658 20.3456 97.9429 20.1409 97.3367 19.7396C96.7829 19.3681 96.3785 18.8126 96.1951 18.1715C96.0201 17.271 95.9506 16.3532 95.9881 15.4367V9.50287H93.8147V15.5966C93.8147 17.3623 94.0154 18.6576 94.4231 19.5577C94.8183 20.4413 95.4751 21.1824 96.3049 21.6809C97.2459 22.2112 98.3145 22.4727 99.3941 22.4368C100.471 22.4744 101.538 22.2116 102.474 21.6778C103.295 21.1816 103.946 20.4477 104.34 19.5734C104.748 18.6858 104.945 17.4219 104.945 15.7064V9.50287H102.737Z" fill="#267317"/>
<path d="M117.939 11.9177C117.598 11.106 117.021 10.4154 116.283 9.93564C115.521 9.44346 114.631 9.18808 113.724 9.20175C112.817 9.19668 111.924 9.41995 111.127 9.85096C110.534 10.1812 109.998 10.6048 109.54 11.1055V9.50283H107.37V22.1262H109.54V17.4219C109.503 16.3543 109.574 15.2858 109.75 14.2323C109.966 13.3966 110.441 12.651 111.108 12.1028C111.748 11.5464 112.569 11.243 113.416 11.2497C114.056 11.219 114.688 11.407 115.207 11.7829C115.691 12.1987 116.016 12.7695 116.126 13.3981C116.267 14.2908 116.322 15.1951 116.289 16.0984V22.1262H118.459V15.6405C118.459 13.95 118.29 12.73 117.939 11.9177Z" fill="#267317"/>
<path d="M123.709 9.50286V5.04938H121.539V9.50286H119.435V11.4662H121.539V22.1294H123.709V11.4662H126.159V9.50286H123.709Z" fill="#267317"/>
<path d="M129.474 5.01799C129.329 4.86751 129.154 4.74841 128.961 4.66803C128.768 4.58766 128.56 4.54772 128.351 4.55069C128.144 4.54833 127.938 4.58859 127.747 4.66898C127.556 4.74937 127.384 4.86817 127.241 5.01799C127.091 5.16425 126.973 5.33952 126.893 5.53311C126.813 5.7267 126.773 5.93454 126.777 6.14391C126.777 6.56313 126.943 6.96518 127.24 7.26161C127.536 7.55804 127.938 7.72458 128.357 7.72458C128.777 7.72458 129.179 7.55804 129.475 7.26161C129.771 6.96518 129.938 6.56313 129.938 6.14391C129.94 5.93477 129.899 5.72741 129.82 5.53405C129.74 5.34069 129.622 5.16523 129.474 5.01799Z" fill="#267317"/>
<path d="M127.272 9.50287V22.1263H129.442V9.50287H127.272Z" fill="#267317"/>
<path d="M142.43 11.9177C142.09 11.1064 141.514 10.4158 140.777 9.93561C140.015 9.44378 139.125 9.18843 138.218 9.20173C137.31 9.19626 136.416 9.41954 135.618 9.85093C135.025 10.1812 134.489 10.6048 134.031 11.1054V9.50281H131.861V22.1262H134.031V17.4218C133.989 16.3525 134.056 15.2817 134.232 14.226C134.445 13.3893 134.921 12.6429 135.59 12.0965C136.228 11.54 137.048 11.2366 137.895 11.2434C138.535 11.2127 139.166 11.4007 139.686 11.7766C140.17 12.1924 140.494 12.7632 140.604 13.3918C140.746 14.2845 140.801 15.1888 140.768 16.0921V22.1262H142.938V15.6405C142.95 13.95 142.781 12.73 142.43 11.9177Z" fill="#267317"/>
<path d="M155.577 9.50284V11.0961C155.056 10.5597 154.449 10.1154 153.78 9.78197C152.953 9.39029 152.048 9.18984 151.133 9.19549C150.276 9.19672 149.428 9.36668 148.637 9.69565C147.846 10.0246 147.128 10.5062 146.523 11.1128C145.918 11.7194 145.439 12.4393 145.112 13.2312C144.785 14.0231 144.618 14.8716 144.619 15.7283C144.609 16.8527 144.897 17.9597 145.453 18.9367C146.016 19.9155 146.836 20.7214 147.824 21.2669C148.744 21.7863 149.774 22.0791 150.829 22.1211C151.885 22.1631 152.935 21.9531 153.893 21.5084C154.515 21.2175 155.084 20.8253 155.577 20.348C155.561 21.5116 155.417 22.3615 155.15 22.879C154.821 23.4598 154.325 23.9285 153.727 24.2244C152.948 24.6114 152.086 24.7999 151.218 24.7733C150.341 24.8033 149.47 24.6193 148.68 24.237C147.983 23.8557 147.411 23.2805 147.034 22.581L146.943 22.4242H144.597L144.801 22.8946C145.154 23.7289 145.659 24.4903 146.291 25.1402C146.898 25.7033 147.619 26.1309 148.404 26.3947C149.331 26.7085 150.305 26.8623 151.283 26.8495C152.6 26.8827 153.901 26.5575 155.047 25.9086C156.09 25.2985 156.884 24.3401 157.289 23.202C157.603 22.3803 157.747 21.1352 157.747 19.3977V9.50284H155.577ZM154.451 18.8551C153.654 19.6455 152.569 20.0438 151.249 20.0438C150.659 20.0712 150.07 19.9789 149.517 19.7724C148.964 19.566 148.459 19.2497 148.031 18.8426C147.625 18.4501 147.307 17.9767 147.095 17.4533C146.884 16.9298 146.785 16.3677 146.805 15.8036C146.802 15.0096 147.007 14.2288 147.401 13.5392C147.794 12.8583 148.365 12.2976 149.054 11.9178C149.75 11.5243 150.537 11.3199 151.337 11.325C152.106 11.3206 152.863 11.5186 153.532 11.8989C154.19 12.2659 154.733 12.8089 155.1 13.4671C155.477 14.1627 155.668 14.9436 155.655 15.7346C155.681 16.3097 155.587 16.8837 155.379 17.4208C155.172 17.9578 154.856 18.4461 154.451 18.8551Z" fill="#267317"/>
</g>
<defs>
<clipPath id="clip0">
<rect width="157.747" height="27" fill="white"/>
</clipPath>
</defs>
</svg>
